<svg xmlns="http://www.w3.org/2000/svg" fill="none" viewBox="0 0 40 40" height="40" width="40">
<path fill="black" d="M37.3211 10L20 0L2.68005 10V29.9988L20 40L37.32 29.9988L37.3211 10Z"></path>
<path fill="#A6A6A6" d="M20.0004 32.9838L30.2668 27.0563L26.3301 24.7842L22.3066 27.1063C22.1646 27.1931 21.9648 27.08 21.97 26.9117V21.3919C21.97 21.2262 22.0621 21.079 22.1962 21.0027L26.977 18.2415C27.1191 18.1547 27.3189 18.2651 27.3137 18.4361V23.0802L31.2504 25.3523V13.4974L20.0004 19.9929V32.9838Z"></path>
<path fill="white" d="M20.9839 7.5697V12.1165L25.0074 14.4386C25.152 14.5201 25.1573 14.7462 25.0074 14.8278L20.2265 17.589C20.0819 17.6731 19.911 17.6679 19.7768 17.589L14.996 14.8278C14.8487 14.7489 14.8461 14.5175 14.996 14.4386L19.0168 12.1165V7.5697L8.75037 13.4971L20.0004 19.9926L31.2504 13.4971L20.9839 7.5697Z"></path>
<path fill="#CCCCCC" d="M17.698 27.1063L13.6745 24.7842L9.73779 27.0563L20.0043 32.9838V19.9929L8.75427 13.4974V25.3523V25.297V25.3523L12.691 23.0802V18.4361C12.6884 18.2704 12.883 18.1521 13.0276 18.2415L17.8084 21.0027C17.9531 21.0868 18.0346 21.2367 18.0346 21.3919V26.9117C18.0372 27.0774 17.8426 27.1957 17.698 27.1063Z"></path>
<path fill-opacity="0.5" fill="white" d="M2.68005 10L20.0001 20L37.32 10L20 0L2.68005 10Z"></path>
<path fill-opacity="0.2" fill="white" d="M20.0003 39.9991L20.0005 19.9995L2.68033 10L2.68005 29.9995L20.0003 39.9991Z"></path>
</svg>
